<svg stroke-width=".501" stroke-linejoin="bevel" fill-rule="evenodd" xmlns="http://www.w3.org/2000/svg" overflow="visible" width="200" height="58.816" viewBox="0 0 150 44.112"><g stroke="none" fill="none" font-family="Times New Roman" font-size="16"><path d="M116.625 5.992v21.397c0 2.329 1.89 4.22 4.219 4.22h24.936a4.222 4.222 0 004.22-4.22V5.992a4.221 4.221 0 00-4.22-4.219h-24.936a4.22 4.22 0 00-4.219 4.219z" fill="#000140"/><path d="M.209 24.587v-5.499C1.566 8.329 10.792 0 21.957 0 34.059 0 43.88 9.783 43.88 21.836c0 12.054-9.821 21.836-21.923 21.836-11.165 0-20.391-8.328-21.748-19.085z" fill="#0087a3"/><path d="M.209 24.586c-.146-1.371-.387-2.428 0-5.497C1.558 8.33 10.726 0 21.821 0l.194.001v43.671h-.194c-11.095 0-20.263-8.33-21.612-19.086z" fill="#000140"/><g fill-rule="nonzero" stroke-linejoin="round" stroke-linecap="round" stroke-width=".1" fill="#fff" stroke-miterlimit="79.84"><path d="M8.162 32.572c-.605-.775-.909-1.702-.909-2.774V25.56c0-1.051-.214-1.819-.643-2.306-.644-.722-1.797-1.08-3.457-1.081v-.701c1.698 0 2.85-.361 3.457-1.082.429-.525.643-1.451.643-2.775v-3.799c-.02-1.051.255-1.948.821-2.688.917-1.245 2.55-2.026 4.892-2.337v.381c-1.52.194-2.616.799-3.28 1.812-.508.776-.762 1.789-.763 3.036v3.389c.001 1.304-.224 2.282-.674 2.923-.547.76-1.514 1.257-2.901 1.489 1.407.332 2.365.77 2.872 1.315.469.489.704 1.237.703 2.249v4.032c.001 1.385.273 2.455.822 3.212.605.841 1.679 1.463 3.221 1.874v.38c-2.283-.351-3.887-1.121-4.804-2.311zM30.99 34.883v-.38c1.545-.411 2.619-1.033 3.224-1.874.548-.757.821-1.827.822-3.212v-4.032c-.001-1.012.233-1.76.702-2.249.509-.545 1.465-.983 2.872-1.315-1.388-.232-2.355-.729-2.901-1.489-.449-.641-.674-1.619-.673-2.923V14.02c-.001-1.247-.257-2.26-.764-3.036-.663-1.013-1.757-1.618-3.282-1.812v-.381c2.344.311 3.977 1.092 4.895 2.337.567.74.838 1.637.82 2.688v3.799c-.001 1.324.216 2.25.645 2.775.604.721 1.757 1.082 3.459 1.082v.701c-1.663.001-2.814.359-3.459 1.081-.429.487-.646 1.255-.645 2.306v4.238c-.001 1.072-.303 1.999-.908 2.774-.918 1.19-2.52 1.96-4.807 2.311z"/></g><path d="M22.054 21.334c-.011.093-.025.189-.039.293v-8.372h2.374c.063.494.224 2.361.482 5.594l.483 6.448c.247-4.103.655-8.117 1.231-12.042h4.299l-1.967 16.967h-5.526c-.506-2.606-.95-5.569-1.337-8.888z" fill-rule="nonzero" stroke-linejoin="round" stroke-linecap="round" stroke-width=".072" fill="#fff" stroke-miterlimit="79.84"/><g fill="#0087a3" fill-rule="nonzero" stroke-linejoin="round" stroke-linecap="round" stroke-miterlimit="79.84"><path d="M15.326 30.222l-1.759-15.11.874-.607.61-1.25h2.599l.453 5.921.463 5.71c.161-2.955.568-6.832 1.218-11.631h2.236l.034 8.079c-.175 1.42-.584 4.381-1.23 8.888h-5.498z" stroke-width=".072"/><path d="M14.971 30.217l-.814-8.359c-.132-1.349-.243-2.156-.333-2.421-.091-.265-.286-.451-.588-.557-.301-.104-.949-.095-1.944.022l-.426.052-.199-2.032c2.037-.705 3.437-2.131 4.379-3.667h2.627l.893 11.631-.575 5.331h-3.02z" stroke-width=".115"/></g><text transform="matrix(.99138 0 0 1 52.652 24.944)" font-size="21.324" stroke-width=".477" stroke-miterlimit="79.84"><tspan x="0" y="0" fill="#0087a3" font-family="Impact">UnWeb </tspan><tspan x="65.919" y="0" fill="#fff" font-family="Source Sans Pro ExtraLight">.C</tspan><tspan x="81.871" y="0" fill="#fff" font-family="Source Sans Pro ExtraLight">O</tspan></text><text transform="matrix(.9914 0 0 1 55.35 40.383)" font-family="Yu Gothic UI Light" font-size="7.948" fill="#000140" stroke-width=".325" stroke-miterlimit="79.84"><tspan x="0" y="-.135">Servicios Web Profesionales</tspan></text></g></svg>